#!OML:ASF H:\Terrain\Patient Classification 1\Animal2\Wednesday\Animal2.ASF
:FULLY-SPECIFIED
:DEGREES
842
root 12.1166 17.7254 -24.8127 -1.18437 7.15715 -361.769
lowerback 3.17376 -1.46959 2.364
upperback -6.1726 -1.84927 -0.73264
thorax -8.36554 -1.08392 -1.90322
lowerneck -1.50655 1.18121 11.1857
upperneck 11.2843 3.58279 -23.7366
head 4.10451 1.20523 -9.41767
rclavicle 1.11319e-014 2.54444e-014
rhumerus -32.8566 -4.42219 -84.0893
rradius 16.1081
rwrist 22.4515
rhand -18.6219 1.83142
rfingers 7.12502
rthumb 7.67012 -28.0095
lclavicle 1.11319e-014 2.54444e-014
lhumerus -52.9628 -26.2751 97.5667
lradius 40.8221
lwrist 50.8581
lhand -34.4493 51.9502
lfingers 7.12502
lthumb -7.61325 81.7932
rfemur -4.51663 -11.0979 25.0839
rtibia 23.4259
rfoot -21.0246 -14.5881
rtoes 14.1256
lfemur -7.22876 4.59115 -21.2506
ltibia 25.9575
lfoot -18.5644 14.062
ltoes -19.0842
843
root 12.1153 17.7241 -24.808 -1.1321 7.31467 -361.65
lowerback 3.05963 -1.47733 2.1632
upperback -6.13959 -1.87794 -0.752614
thorax -8.2566 -1.08457 -1.81194
lowerneck -1.53001 1.17705 11.2008
upperneck 11.2097 3.56188 -23.7371
head 4.0835 1.19758 -9.41901
rclavicle 3.59303e-014 6.75868e-015
rhumerus -33.0035 -4.26991 -84.0089
rradius 16.2019
rwrist 22.2481
rhand -19.2107 2.47541
rfingers 7.12502
rthumb 7.10181 -27.3854
lclavicle 3.59303e-014 6.75868e-015
lhumerus -52.4746 -26.2637 97.2029
lradius 40.7623
lwrist 50.8467
lhand -34.4317 51.1395
lfingers 7.12502
lthumb -7.59625 80.983
rfemur -4.56898 -11.0369 24.9858
rtibia 23.4646
rfoot -20.9986 -14.7466
rtoes 14.1084
lfemur -7.25225 4.50927 -21.3792
ltibia 25.9073
lfoot -18.5099 14.0052
ltoes -18.3219
844
root 12.1146 17.7223 -24.8026 -1.16596 7.49933 -361.516
lowerback 2.9999 -1.46787 1.94926
upperback -6.02518 -1.88382 -0.783552
thorax -8.09008 -1.07262 -1.727
lowerneck -1.86675 1.16531 11.0923
upperneck 11.3149 3.53645 -23.6144
head 4.1683 1.16146 -9.35788
rclavicle -4.29375e-014 -3.57812e-015
rhumerus -33.1507 -3.97592 -84.0052
rradius 16.4305
rwrist 21.9931
rhand -19.7161 2.88193
rfingers 7.12502
rthumb 6.61393 -26.9948
lclavicle -4.29375e-014 -3.57812e-015
lhumerus -51.8716 -26.2564 96.7597
lradius 40.6564
lwrist 50.332
lhand -34.0319 50.943
lfingers 7.12502
lthumb -7.21037 80.8001
rfemur -4.52633 -11.1156 24.8356
rtibia 23.5246
rfoot -20.9678 -14.9309
rtoes 13.8403
lfemur -7.15496 4.35644 -21.5282
ltibia 25.8397
lfoot -18.4819 13.9495
ltoes -17.3098
845
root 12.1155 17.7216 -24.7964 -1.21383 7.64011 -361.459
lowerback 3.02636 -1.4851 1.86629
upperback -5.98094 -1.91486 -0.819044
thorax -8.05722 -1.0833 -1.71462
lowerneck -2.05215 1.16318 11.1279
upperneck 11.4111 3.53368 -23.5826
head 4.22985 1.1482 -9.3566
rclavicle -2.6339e-015 1.31198e-014
rhumerus -33.2087 -4.06548 -83.9209
rradius 16.3761
rwrist 22.1848
rhand -19.9096 3.09044
rfingers 7.12502
rthumb 6.42712 -26.792
lclavicle -2.6339e-015 1.31198e-014
lhumerus -51.5137 -26.3555 96.3967
lradius 40.5828
lwrist 49.7987
lhand -33.4041 51.1655
lfingers 7.12502
lthumb -6.60434 81.0426
rfemur -4.4473 -11.1808 24.7444
rtibia 23.5462
rfoot -20.9226 -15.0132
rtoes 13.8615
lfemur -7.06074 4.31245 -21.5902
ltibia 25.8018
lfoot -18.4676 13.9112
ltoes -17.9812
846
root 12.1149 17.7219 -24.7914 -1.21552 7.76768 -361.54
lowerback 3.11691 -1.48152 1.93038
upperback -6.0823 -1.90565 -0.845928
thorax -8.22368 -1.08588 -1.77634
lowerneck -1.8953 1.08757 11.3736
upperneck 11.4169 3.43832 -23.718
head 4.1885 1.11576 -9.45733
rclavicle -1.12313e-014 1.19271e-014
rhumerus -33.373 -4.01551 -83.9497
rradius 16.1796
rwrist 22.0839
rhand -19.9628 3.22842
rfingers 7.12502
rthumb 6.37571 -26.6556
lclavicle -1.12313e-014 1.19271e-014
lhumerus -51.4454 -26.6043 96.2331
lradius 40.5363
lwrist 49.4978
lhand -33.0907 51.2186
lfingers 7.12502
lthumb -6.30175 81.1049
rfemur -4.38822 -11.1495 24.8461
rtibia 23.4832
rfoot -20.8081 -15.1903
rtoes 13.4627
lfemur -7.07499 4.19869 -21.5075
ltibia 25.822
lfoot -18.6459 13.8205
ltoes -17.7764
847
root 12.1114 17.7262 -24.7898 -1.07746 8.05706 -361.711
lowerback 3.06866 -1.51727 2.055
upperback -6.20599 -1.94296 -0.818402
thorax -8.33581 -1.11308 -1.81286
lowerneck -1.91697 1.02659 11.5169
upperneck 11.5501 3.3794 -23.8312
head 4.22223 1.08208 -9.5336
rclavicle 3.3197e-014 2.14687e-014
rhumerus -33.5353 -3.70671 -84.085
rradius 16.1112
rwrist 21.743
rhand -19.8252 2.98674
rfingers 7.12502
rthumb 6.50853 -26.8932
lclavicle 3.3197e-014 2.14687e-014
lhumerus -51.397 -26.8759 96.2536
lradius 40.5532
lwrist 49.7633
lhand -33.8345 51.33
lfingers 7.12502
lthumb -7.01984 81.1935
rfemur -4.50791 -11.1442 25.1104
rtibia 23.3553
rfoot -20.5637 -15.5963
rtoes 12.6146
lfemur -7.32932 3.88437 -21.3439
ltibia 25.891
lfoot -18.7695 13.7084
ltoes -16.8947
848
root 12.1077 17.7322 -24.7899 -0.852019 8.33855 -361.713
lowerback 2.88067 -1.58359 1.99101
upperback -6.29437 -2.03631 -0.776623
thorax -8.32177 -1.15392 -1.7269
lowerneck -1.90906 1.00561 11.3003
upperneck 11.6035 3.3571 -23.6909
head 4.22782 1.06595 -9.44334
rclavicle 6.06293e-015 -1.11319e-014
rhumerus -33.5246 -3.58485 -84.0804
rradius 16.0316
rwrist 21.7326
rhand -19.9026 2.9217
rfingers 7.12502
rthumb 6.43381 -26.9606
lclavicle 6.06293e-015 -1.11319e-014
lhumerus -51.266 -26.8892 96.2211
lradius 40.597
lwrist 49.9638
lhand -34.3645 51.8486
lfingers 7.12502
lthumb -7.53137 81.6945
rfemur -4.71802 -11.0902 25.1828
rtibia 23.1885
rfoot -20.3716 -15.837
rtoes 12.5488
lfemur -7.67976 3.62839 -21.3668
ltibia 25.9952
lfoot -18.6615 13.6664
ltoes -16.9983
